<svg xmlns="http://www.w3.org/2000/svg" data-name="Layer 1" viewBox="0 0 100 125" x="0px" y="0px"><path d="M59.0466607,77.6356743c0,8.8669987,7.2619972,16.1280003,16.1280022,16.1280003s16.1279984-7.262001,16.1279984-16.1280003-7.2610016-16.1280012-16.1279984-16.1280012-16.1280022,7.2620001-16.1280022,16.1280012Zm3.5919991,0c0-6.8789997,5.6559982-12.5360012,12.5360031-12.5360012s12.5360031,5.6560001,12.5360031,12.5359993-5.6570053,12.5359993-12.5360031,12.5359993-12.5360031-5.579998-12.5360031-12.5359974Z"/><path d="M69.4245822,72.7251904c-.5065702-.0835543-1.1361761-.1780366-1.7611775-.2967288-.1671309-.0317398-.2346963-.1975386-.2245509-.3633892,.0133417-.2181184,.1795087-.3243911,.3618154-.3038623,.6102311,.0687215,1.2192095,.155883,1.8236743,.2638833,.1793094,.0320397,.3039045,.1830456,.2500399,.3982726-.0412892,.1649874-.1502343,.2634911-.4498012,.3018243Z"/><path d="M70.2854953,73.8805877c.0514289,.2090587-.0476438,.3550302-.1927131,.4676283-.4022999,.3122416-.8046174,.6253698-1.2209625,.9181998-.1841112,.1294911-.4143846,.2167209-.6004614-.0000999-.1989487-.2318246-.0409262-.4273198,.133766-.5670461,.4146295-.3316401,.8404474-.6506166,1.2760414-.9542039,.231547-.1613769,.4601779-.1450724,.6043296,.1355219Z"/><path d="M70.6695231,70.6305796c.1080643,.2678944,.0731184,.4127334-.0523846,.5273214-.1347501,.1230326-.3031908,.1185844-.4229561,.0037072-.4652668-.4462803-.8218834-.9809684-1.1707936-1.518041-.0928105-.1428616-.0436209-.3055689,.0931363-.4147289,.1623374-.1295809,.3564861-.1253933,.4797114,.0245857,.3924098,.4775994,.7617256,.9741625,1.0732866,1.3771556Z"/><path d="M72.1025176,70.8004506c-.2528074,.0369945-.3976274-.1056269-.399529-.3272531-.0053112-.6191332,.1047289-1.2283398,.2488769-1.8283949,.0437576-.1821601,.1908338-.3021123,.4026423-.2542727,.1658749,.037467,.2997878,.1524357,.280096,.3213735-.0713536,.6121627-.1630545,1.2221519-.258445,1.8311843-.0217472,.1388516-.1306997,.2255486-.2736411,.257363Z"/><path d="M73.8023144,71.582007c-.314205,.1069977-.4916744,.1144304-.6005769-.0705828-.1057567-.1796671-.0392017-.3603185,.1062086-.4750477,.4495456-.35469,.9098248-.6961849,1.3736684-1.0321336,.1606204-.1163371,.3400266-.0972951,.4833326,.0440286,.1592183,.1570187,.1189082,.3550107-.0188161,.4708021-.4710637,.396037-.9643195,.7656876-1.3438166,1.0629334Z"/><path d="M81.549492,83.4947721c-.6390135-.9054032-1.2997566-1.8405841-1.9661334-2.7500113-.1150868-.1569366-.1875191-.2768522-.1657894-.3525036,.0177057-.0635794,.1126724-.1311829,.2808762-.2003959,.6333798-.2599513,1.2933182-.5834821,2.0176407-.9891027,.3589421-.2020055,.567386-.4957586,.5706052-.8064125,.004024-.3138731-.1907383-.6019925-.5480707-.8128509-2.4474055-1.4462307-4.9430991-2.9029239-7.3575077-4.3121337l-1.9097972-1.1154568c-.2824858-.1641798-.6551095-.3170923-1.0349765-.0370209-.3283596,.2430505-.4378128,.5730196-.3452604,1.0381957,.4812721,2.4184326,.9569106,4.8376699,1.4405971,7.3003667l.5931397,3.0164011,.0136816,.0587506c.0667986,.3082395,.1690086,.7742203,.7235178,.9239137,.502197,.1327925,.7870972-.1641798,1.0438293-.4265455,.0378257-.0386305,.0756515-.0780659,.114282-.1150868l.2301736-.2213208c.3476748-.3331884,.7074217-.677644,1.024514-1.0518773,.1335973-.1577414,.2454649-.2398312,.3291644-.2317832,.0885283,.0048288,.1915431,.1014052,.3331884,.3122635,.4812721,.7154697,.9955411,1.4236962,1.4929093,2.1085835l.1851047,.2559273c.5858965,.8088269,.910232,1.2337628,1.3182671,1.2917086,.0321921,.0048288,.0643842,.0072432,.0965763,.0072432,.3806717,0,.8048029-.3146779,1.534759-.8820639,.6687912-.5207074,.730761-.9528866,.2382216-1.6506506l-.2535129-.3581373Zm-3.6554145-3.5016972c-.057141,.2036151,.0555314,.4128639,.2567321,.6848872,.3951582,.5335843,.7862924,1.0848742,1.1637449,1.6176537,.4345935,.6108454,.8828687,1.2434204,1.3408015,1.8542658,.2663897,.3541133,.1987863,.4997826-.1384261,.7573195-.1738374,.1311829-.3042155,.1818854-.4128639,.1682038-.1070388-.0169009-.216492-.110258-.342846-.2921434-.4032062-.5810677-.8152653-1.1548921-1.2281291-1.7287165-.4378128-.6100406-.8909168-1.241006-1.3247055-1.869557-.1649846-.2382216-.3098491-.3500892-.4700049-.3621613-.0096576-.0008048-.0193153-.0016096-.0289729-.0016096-.1472789,0-.293753,.0853091-.4700049,.2728282-.3315788,.3516988-.6792536,.7001785-1.0156612,1.0373909-.2317832,.2317832-.4635664,.4643712-.6929353,.7001785-.1746422,.179471-.2454649,.1778614-.2559273,.1730326-.0112672-.0032192-.0700178-.0321921-.118306-.269609-.2132728-1.0550965-.4297647-2.1101931-.6462567-3.1644848-.2020055-.9866883-.4048158-1.9733766-.6052117-2.9608697-.1537173-.7613435-.3001915-1.5234918-.4426416-2.26552l-.1521077-.7870972,8.3932889,4.9044686c-.1770566,.0885283-.3565277,.179471-.5368035,.2720234-.5657764,.2873146-1.1500633,.5850917-1.7520558,.8281421-.3114587,.126354-.4716145,.2591465-.5207074,.4313743Z"/><path d="M72.8707517,17.3659337c-1.2450633-3.3872012-4.1683861-5.5759379-7.4476238-5.5759379h-4.3519048c-.1704787-2.183559-1.9903243-3.9230553-4.215688-3.9230553h-13.1111342c-2.2252998,0-4.0452093,1.7394963-4.215688,3.9230553h-4.3514573c-3.2796213,0-6.203008,2.1887367-7.4480713,5.5759379l-5.3971494,14.6815581h3.4945894l4.8931922-13.3106972c.7455167-2.0273988,2.4949207-3.3370867,4.4574392-3.3370867h4.5628458c.5723533,1.6716755,2.1450783,2.8898279,4.0042995,2.8898279h13.1111342c1.8592852,0,3.4320102-1.2181524,4.0042995-2.8898279h4.5632932c1.962071,0,3.711539,1.309688,4.4570556,3.3370867l4.8931922,13.3106972h3.4945894l-5.3972133-14.6815581Z"/><path d="M56.0511475,81.6606445h-4.3027954l-.0657349-12.2800293h5.7972412c.5009766-1.0717163,1.0906372-2.0908813,1.7697144-3.0460205h-7.5831909l-.0571899-10.6920166h14.5176392l-.3823242,4.8788452c1.1196899-.6182861,2.3046875-1.1315918,3.5448608-1.5228882l.2630005-3.355957h12.5063477l-.6373291,3.4882202c1.1190186,.3777466,2.1959839,.8446045,3.2139282,1.4091187l4.7081909-25.7667847H11.2565308l7.0114746,38.3719482c1.2631226,6.9125977,7.2801514,11.9302368,14.3076782,11.9302368h24.5307617c-.4504395-1.0925903-.8078003-2.2330933-1.0552979-3.4146729Zm14.8692017-43.4728394h14.3277588l-2.5654297,14.0401001h-12.8626709l1.1003418-14.0401001Zm-53.0029907,14.0401001l-2.5654297-14.0401001h13.5765381l1.1003418,14.0401001h-12.1114502Zm.6239014,3.4146729h11.755127l.8379517,10.6920166h-10.6394043l-1.9536743-10.6920166Zm3.0858765,16.8884277l-.5756226-3.1503906h10.3214722l.9616089,12.2692261c-5.272583-.1135864-9.7553711-3.9085083-10.7074585-9.1188354Zm10.7268677-34.3432007h15.7470093l.0751343,14.0401001h-14.7218018l-1.1003418-14.0401001Zm1.367981,17.4547729h14.4724121l.0571899,10.6920166h-13.6917114l-.8378906-10.6920166Zm2.0390015,26.0180664l-.9624023-12.2800293h13.4692993l.0656738,12.2800293h-12.5725708Zm15.7548218-43.4728394h15.9790039l-1.1003418,14.0401001h-14.8035278l-.0751343-14.0401001Z"/><text x="0" y="115" fill="#000000" font-size="5px" font-weight="bold" font-family="'Helvetica Neue', Helvetica, Arial-Unicode, Arial, Sans-serif">Created by Kristina Margaryan</text><text x="0" y="120" fill="#000000" font-size="5px" font-weight="bold" font-family="'Helvetica Neue', Helvetica, Arial-Unicode, Arial, Sans-serif"></text></svg>